<!-- DevOps-themed favicon: cloud + gear -->
<svg xmlns="http://www.w3.org/2000/svg" viewBox="0 0 100 100" role="img" aria-label="DevOps favicon">
  <title>DevOps</title>
  <rect width="100" height="100" rx="16" fill="#0b5563" />
  <!-- cloud -->
  <g transform="translate(12,26)">
    <path d="M26 6c-5 0-9 3-11 7-6 0-10 5-10 10s4 10 10 10h30c6 0 10-4 10-10s-4-10-10-10c-1-4-5-7-9-7-2 0-4 0-6 1-2-3-6-5-10-5z" fill="#ffffff" opacity="0.95"/>
  </g>
  <!-- gear (mask to create devops/automation feel) -->
  <g transform="translate(58,48) scale(0.5)">
    <g fill="#00b4d8">
      <path d="M32 2v6.9a12.1 12.1 0 0 1 3.6 1.9l4.9-4.9 4.9 4.9-4.9 4.9A12.1 12.1 0 0 1 54 23.1H60v6h-6.1a12.1 12.1 0 0 1-1.9 3.6l4.9 4.9-4.9 4.9-4.9-4.9A12.1 12.1 0 0 1 32 54.1V61h-6v-6.9a12.1 12.1 0 0 1-3.6-1.9l-4.9 4.9-4.9-4.9 4.9-4.9A12.1 12.1 0 0 1 10 35.9H4v-6h6.1a12.1 12.1 0 0 1 1.9-3.6L7.1 20.4l4.9-4.9 4.9 4.9A12.1 12.1 0 0 1 26 11.9V5h6v6.9c1.3.4 2.5.9 3.6 1.9L41 8.9 45.9 13l-4.9 4.9c1 1.1 1.6 2.4 1.9 3.6H60v6h-6.1c-.4 1.3-.9 2.5-1.9 3.6l4.9 4.9-4.9 4.9-4.9-4.9c-1.1 1-2.4 1.6-3.6 1.9V61h-6v-6.9a12.1 12.1 0 0 1-3.6-1.9l-4.9 4.9-4.9-4.9 4.9-4.9A12.1 12.1 0 0 1 10 35.9H4v-6h6.1c.4-1.3.9-2.5 1.9-3.6L7.1 20.4 12 15.5l4.9 4.9c1.1-1 2.4-1.6 3.6-1.9V5h6v6.9c1.3.4 2.5.9 3.6 1.9L41 8.9 45.9 13 41 17.9c1 1.1 1.6 2.4 1.9 3.6H60v6h-6.1c-.4 1.3-.9 2.5-1.9 3.6l4.9 4.9-4.9 4.9-4.9-4.9c-1.1 1-2.4 1.6-3.6 1.9V61h-6v-6.9c-1.3-.4-2.5-.9-3.6-1.9L20.9 57.9 16 53l4.9-4.9c-1-1.1-1.6-2.4-1.9-3.6H4v-6h6.1c.4-1.3.9-2.5 1.9-3.6L7.1 20.4 12 15.5l4.9 4.9c1.1-1 2.4-1.6 3.6-1.9V5h6v6.9z"/>
    </g>
  </g>
</svg>
